<svg width="366" height="329" viewBox="0 0 366 329" fill="none" xmlns="http://www.w3.org/2000/svg">
<path d="M136.5 139L109.5 329L225.5 290.5L202 130L136.5 139Z" fill="#E6E9EE"/>
<path d="M136.5 139L109.5 329L0 290L75.5 128.5L136.5 139Z" fill="white"/>
<path d="M202 129.5L225 291L365.5 329L273 139.5L202 129.5Z" fill="white"/>
<path d="M29 272.5L85 151L134 160L113 299.5L29 272.5Z" fill="#84DBFF"/>
<path d="M134 160L113 299.5L221 262.5L205 151L134 160Z" fill="#54C0EB"/>
<path d="M205 151L221 262.5L310.5 286.5L253 156L205 151Z" fill="#84DBFF"/>
<path d="M173.077 38.271V46.9638L73.8467 81.3129C79.692 38.8658 115.562 14.503 132.263 14.5401C152.569 14.5866 164.622 22.93 170.666 28.9147L170.842 38.0703L173.077 38.271Z" fill="#4C857C"/>
<path d="M173.077 84.5023L86.3146 144.482C75.451 122.822 72.0181 103.416 73.282 86.6193L173.079 52.075L173.077 84.5023Z" fill="#407167"/>
<path d="M173.077 240.091C163.317 232.575 154.414 225.198 146.313 217.97L173.077 191.206V240.091Z" fill="#4C857C"/>
<path d="M173.077 131.334L116.394 188.014C104.365 174.277 95.2452 161.183 88.5579 148.801L173.077 90.3718V131.334Z" fill="#4C857C"/>
<path d="M173.077 184.375L142.724 214.73C134.096 206.848 126.42 199.144 119.614 191.628L173.077 138.164V184.375Z" fill="#407167"/>
<path d="M177.907 52.049L278.267 86.0078C279.63 103.52 275.871 123.892 263.868 146.725L177.907 84.5358V52.049Z" fill="#5A9F98"/>
<path d="M177.907 90.4945L261.539 151C254.781 162.994 245.748 175.644 234.021 188.89L177.907 132.776V90.4945Z" fill="#69BAA8"/>
<path d="M177.907 38.8992L180.762 39.3862L180.751 28.5951C186.892 22.6215 198.885 14.542 218.849 14.5402C236.197 14.5402 271.779 38.6614 277.695 80.7164L177.907 46.9526V38.8992Z" fill="#69BAA8"/>
<path d="M204.74 218.037C196.614 225.276 187.687 232.664 177.907 240.19V191.204L204.74 218.037Z" fill="#69BAA8"/>
<path d="M177.907 139.605L230.787 192.484C224.139 199.75 216.674 207.192 208.333 214.799L177.907 184.373V139.605Z" fill="#5A9F98"/>
<path d="M173.077 31.5113C172.417 30.7307 171.616 29.8515 170.668 28.9148L170.219 5.53892C170.178 3.42195 171.358 1.56519 173.112 0.63588C173.098 0.745537 173.079 0.855169 173.079 0.968546L173.077 31.5113Z" fill="#4C857C"/>
<path d="M173.077 31.5112V38.2729L170.845 38.0703L170.668 28.9147C171.616 29.8515 172.417 30.7306 173.077 31.5112Z" fill="#4C857C"/>
<path d="M177.908 31.6525V0.966629C177.908 0.810505 177.889 0.659979 177.861 0.513147C179.552 1.33652 180.725 3.06691 180.727 5.08165L180.751 28.5951C179.604 29.7084 178.658 30.751 177.908 31.6525Z" fill="#5A9F98"/>
<path d="M177.907 38.8992V31.6525C178.66 30.751 179.606 29.7084 180.751 28.5932L180.762 39.3843L177.907 38.8992Z" fill="#5A9F98"/>
<path d="M177.907 84.5358L263.869 146.725C263.125 148.141 262.348 149.567 261.54 151.002L177.907 90.4964V132.778L234.021 188.892C232.963 190.085 231.889 191.284 230.787 192.488L177.907 139.609V184.377L208.333 214.803C207.153 215.879 205.956 216.957 204.74 218.04L177.907 191.208V240.193C177.125 240.796 176.35 241.396 175.558 242C174.722 241.362 173.902 240.729 173.079 240.093V191.208L146.315 217.972C145.101 216.888 143.904 215.808 142.726 214.732L173.079 184.377V138.166L119.614 191.626C118.519 190.418 117.445 189.213 116.396 188.014L173.079 131.334V90.3737L88.5597 148.803C87.7754 147.353 87.032 145.913 86.3145 144.484L173.077 84.5042V52.0768L73.28 86.6212C73.4157 84.8221 73.6071 83.0545 73.8469 81.3148L173.077 46.9656V38.2729V31.5112V0.968521C173.077 0.855148 173.095 0.745514 173.11 0.635849C173.824 0.256699 174.631 0.0280762 175.491 0.00205994C176.342 -0.02211 177.145 0.16748 177.861 0.515045C177.889 0.661865 177.907 0.814255 177.907 0.968521V31.6544V38.9011V46.9526L277.695 80.7164C277.938 82.4486 278.128 84.2161 278.267 86.0097L177.907 52.0509V84.5358Z" fill="#3A665D"/>
<circle cx="176.187" cy="104.992" r="47.3948" fill="white"/>
</svg>
